<mxfile host="app.diagrams.net" modified="2022-01-18T17:37:06.621Z" agent="5.0 (Windows)" etag="qMoHVP-PlstyfqXX0mSV" version="16.3.0" type="github" pages="2">
  <diagram name="YardView" id="38b20595-45e3-9b7f-d5ca-b57f44c5b66d">
    <mxGraphModel dx="4251" dy="761" grid="1" gridSize="10" guides="1" tooltips="1" connect="1" arrows="1" fold="1" page="1" pageScale="1" pageWidth="1100" pageHeight="850" background="none" math="0" shadow="0">
      <root>
        <mxCell id="0" />
        <object label="Hardscape" id="Kb_KIcMxS6iBpeMSpJnd-8">
          <mxCell parent="0" />
        </object>
        <mxCell id="Kb_KIcMxS6iBpeMSpJnd-9" value="Pavers&lt;br&gt;11 x 6 ft" style="rounded=0;whiteSpace=wrap;html=1;fontSize=21;fillColor=#ffe6cc;gradientDirection=west;verticalAlign=bottom;strokeColor=#d79b00;" parent="Kb_KIcMxS6iBpeMSpJnd-8" vertex="1">
          <mxGeometry x="1077" y="1375" width="440" height="240" as="geometry" />
        </mxCell>
        <mxCell id="47l2vDxDsdCU6jmRX7GS-32" value="&lt;font color=&quot;#000000&quot;&gt;Ramp&lt;br&gt;2ft x 3ft&lt;/font&gt;" style="rounded=0;whiteSpace=wrap;html=1;fontSize=16;fontColor=#FF3333;fillColor=#9999FF;gradientColor=none;gradientDirection=west;strokeColor=#FFFFFF;" parent="Kb_KIcMxS6iBpeMSpJnd-8" vertex="1">
          <mxGeometry x="1307" y="1110" width="80" height="120" as="geometry" />
        </mxCell>
        <mxCell id="1" parent="0" />
        <mxCell id="47l2vDxDsdCU6jmRX7GS-13" value="Deck&lt;br&gt;18ft x 12 ft" style="rounded=1;whiteSpace=wrap;html=1;fontSize=21;gradientColor=#CCCCCC;gradientDirection=west;verticalAlign=top;align=right;spacingRight=31;" parent="1" vertex="1">
          <mxGeometry x="1029" y="1540" width="720" height="480" as="geometry" />
        </mxCell>
        <mxCell id="47l2vDxDsdCU6jmRX7GS-3" value="" style="rounded=0;whiteSpace=wrap;html=1;imageAspect=0;imageWidth=40;imageHeight=25;absoluteArcSize=0;resizable=1;resizeWidth=1;resizeHeight=1;fontSize=18;fillOpacity=50;" parent="1" vertex="1">
          <mxGeometry x="-83" y="1000" width="2240" height="990" as="geometry" />
        </mxCell>
        <mxCell id="47l2vDxDsdCU6jmRX7GS-4" value="&lt;b style=&quot;font-size: 23px&quot;&gt;Text Scaling&lt;br&gt;&lt;/b&gt;Order of 40&lt;br&gt;&lt;span&gt;&lt;br&gt;&lt;/span&gt;&lt;ul&gt;&lt;li&gt;&lt;span&gt;2000px = 50ft&lt;/span&gt;&lt;/li&gt;&lt;li&gt;500px = 12.5ft&lt;/li&gt;&lt;li&gt;320px = 8ft&lt;/li&gt;&lt;/ul&gt;" style="rounded=1;whiteSpace=wrap;html=1;fontSize=20;labelPosition=center;verticalLabelPosition=middle;align=center;verticalAlign=middle;fillColor=#fff2cc;strokeColor=#d6b656;" parent="1" vertex="1">
          <mxGeometry x="10" y="1070" width="205" height="200" as="geometry" />
        </mxCell>
        <mxCell id="47l2vDxDsdCU6jmRX7GS-5" value="&lt;b style=&quot;font-size: 25px;&quot;&gt;Back Yard for both units&lt;/b&gt;&lt;br style=&quot;font-size: 25px;&quot;&gt;56ft x 25 ft" style="text;html=1;resizable=0;autosize=1;align=center;verticalAlign=middle;points=[];fillColor=none;strokeColor=none;rounded=0;fontSize=25;" parent="1" vertex="1">
          <mxGeometry x="1690" y="1035" width="300" height="70" as="geometry" />
        </mxCell>
        <mxCell id="47l2vDxDsdCU6jmRX7GS-7" value="Joe shed&lt;br&gt;&amp;nbsp;8 x 10" style="rounded=1;whiteSpace=wrap;html=1;fontSize=21;rotation=0;" parent="1" vertex="1">
          <mxGeometry x="534" y="1170" width="400" height="320" as="geometry" />
        </mxCell>
        <mxCell id="47l2vDxDsdCU6jmRX7GS-10" value="" style="endArrow=none;dashed=1;html=1;rounded=0;fontSize=21;entryX=0.5;entryY=0;entryDx=0;entryDy=0;strokeWidth=6;strokeColor=#FF3333;" parent="1" target="47l2vDxDsdCU6jmRX7GS-3" edge="1">
          <mxGeometry width="50" height="50" relative="1" as="geometry">
            <mxPoint x="1029" y="2010" as="sourcePoint" />
            <mxPoint x="1094" y="1750" as="targetPoint" />
          </mxGeometry>
        </mxCell>
        <mxCell id="47l2vDxDsdCU6jmRX7GS-12" value="Drive way&lt;br&gt;~ 10ft wide" style="rounded=1;whiteSpace=wrap;html=1;fontSize=21;fillColor=#B3B3B3;gradientColor=none;strokeColor=#666666;verticalAlign=top;align=left;spacingLeft=31;" parent="1" vertex="1">
          <mxGeometry x="1744" y="1700" width="440" height="550" as="geometry" />
        </mxCell>
        <mxCell id="47l2vDxDsdCU6jmRX7GS-14" value="Deck&lt;br&gt;18ft x 12 ft" style="rounded=1;whiteSpace=wrap;html=1;fontSize=21;gradientColor=#CCCCCC;gradientDirection=west;" parent="1" vertex="1">
          <mxGeometry x="307" y="1540" width="720" height="480" as="geometry" />
        </mxCell>
        <mxCell id="47l2vDxDsdCU6jmRX7GS-15" value="Shower &amp;amp; Storage&lt;br&gt;~4ft x 12 ft" style="rounded=1;whiteSpace=wrap;html=1;fontSize=21;gradientColor=#CCCCCC;gradientDirection=west;" parent="1" vertex="1">
          <mxGeometry x="1043" y="1860" width="480" height="160" as="geometry" />
        </mxCell>
        <mxCell id="47l2vDxDsdCU6jmRX7GS-16" value="Walk way&lt;br&gt;~4ft x 16ft" style="rounded=1;whiteSpace=wrap;html=1;fontSize=21;gradientColor=#CCCCCC;gradientDirection=west;" parent="1" vertex="1">
          <mxGeometry x="1047" y="1700" width="679" height="160" as="geometry" />
        </mxCell>
        <mxCell id="47l2vDxDsdCU6jmRX7GS-22" value="13 ft" style="endArrow=none;dashed=1;html=1;rounded=0;fontSize=16;strokeWidth=4;strokeColor=#FF3333;fontColor=#000000;" parent="1" edge="1">
          <mxGeometry width="50" height="50" relative="1" as="geometry">
            <mxPoint x="968" y="1542" as="sourcePoint" />
            <mxPoint x="968" y="1020" as="targetPoint" />
          </mxGeometry>
        </mxCell>
        <mxCell id="47l2vDxDsdCU6jmRX7GS-25" value="3ft 9in" style="endArrow=none;dashed=1;html=1;rounded=0;fontSize=16;strokeWidth=3;strokeColor=#FF3333;fontColor=#FF3333;" parent="1" edge="1">
          <mxGeometry width="50" height="50" relative="1" as="geometry">
            <mxPoint x="797" y="1170" as="sourcePoint" />
            <mxPoint x="797" y="1020.0000000000002" as="targetPoint" />
          </mxGeometry>
        </mxCell>
        <mxCell id="47l2vDxDsdCU6jmRX7GS-35" value="" style="endArrow=block;html=1;rounded=0;fontSize=20;fontColor=#000000;strokeColor=#FF3333;strokeWidth=6;startArrow=block;startFill=1;endFill=1;" parent="1" edge="1">
          <mxGeometry width="50" height="50" relative="1" as="geometry">
            <mxPoint x="-80" y="950" as="sourcePoint" />
            <mxPoint x="1040" y="950" as="targetPoint" />
          </mxGeometry>
        </mxCell>
        <mxCell id="47l2vDxDsdCU6jmRX7GS-37" value="23 ft&amp;nbsp;" style="edgeLabel;html=1;align=center;verticalAlign=middle;resizable=0;points=[];fontSize=27;fontColor=#000000;" parent="47l2vDxDsdCU6jmRX7GS-35" vertex="1" connectable="0">
          <mxGeometry x="0.0958" y="-3" relative="1" as="geometry">
            <mxPoint as="offset" />
          </mxGeometry>
        </mxCell>
        <mxCell id="Kb_KIcMxS6iBpeMSpJnd-3" value="" style="shape=crossbar;whiteSpace=wrap;html=1;rounded=1;direction=south;rotation=-30;" parent="1" vertex="1">
          <mxGeometry x="1630" y="1050" width="20" height="80" as="geometry" />
        </mxCell>
        <mxCell id="Kb_KIcMxS6iBpeMSpJnd-4" value="" style="line;strokeWidth=4;html=1;perimeter=backbonePerimeter;points=[];outlineConnect=0;" parent="1" vertex="1">
          <mxGeometry x="1590" y="1085" width="50" height="10" as="geometry" />
        </mxCell>
        <object label="Gear to Store" id="Kb_KIcMxS6iBpeMSpJnd-6">
          <mxCell parent="0" />
        </object>
        <mxCell id="47l2vDxDsdCU6jmRX7GS-38" value="Jet SKi&lt;br&gt;&lt;br&gt;~10ft x 4ft" style="rounded=1;whiteSpace=wrap;html=1;fontSize=20;fontColor=#000000;strokeColor=#B09500;fillColor=#e3c800;gradientDirection=west;rotation=0;" parent="Kb_KIcMxS6iBpeMSpJnd-6" vertex="1">
          <mxGeometry x="1997" y="1590" width="160" height="400" as="geometry" />
        </mxCell>
        <object label="Furniture " id="Kb_KIcMxS6iBpeMSpJnd-5">
          <mxCell parent="0" />
        </object>
        <mxCell id="47l2vDxDsdCU6jmRX7GS-28" value="Chair&lt;br&gt;2ftx2ft" style="whiteSpace=wrap;html=1;aspect=fixed;fontSize=21;fillColor=#d5e8d4;gradientColor=#97d077;gradientDirection=west;strokeColor=#82b366;" parent="Kb_KIcMxS6iBpeMSpJnd-5" vertex="1">
          <mxGeometry x="1307" y="1410" width="80" height="80" as="geometry" />
        </mxCell>
        <mxCell id="47l2vDxDsdCU6jmRX7GS-27" value="&lt;span&gt;Chair&lt;/span&gt;&lt;br&gt;&lt;span&gt;2ftx2ft&lt;/span&gt;" style="whiteSpace=wrap;html=1;aspect=fixed;fontSize=21;fillColor=#d5e8d4;gradientColor=#97d077;gradientDirection=west;strokeColor=#82b366;" parent="Kb_KIcMxS6iBpeMSpJnd-5" vertex="1">
          <mxGeometry x="1427" y="1460" width="80" height="80" as="geometry" />
        </mxCell>
        <mxCell id="47l2vDxDsdCU6jmRX7GS-26" value="Table&lt;br&gt;4ft diameter" style="ellipse;whiteSpace=wrap;html=1;aspect=fixed;fontSize=21;fillColor=#d5e8d4;gradientColor=#97d077;gradientDirection=west;strokeColor=#82b366;" parent="Kb_KIcMxS6iBpeMSpJnd-5" vertex="1">
          <mxGeometry x="1397" y="1290" width="160" height="160" as="geometry" />
        </mxCell>
        <object label="Shed" id="Kb_KIcMxS6iBpeMSpJnd-7">
          <mxCell parent="0" />
        </object>
        <mxCell id="47l2vDxDsdCU6jmRX7GS-17" value="A frame&lt;br&gt;&amp;nbsp;&lt;br&gt;8ft x 8ft" style="rounded=1;whiteSpace=wrap;html=1;fontSize=21;gradientColor=#7ea6e0;gradientDirection=west;fillColor=#dae8fc;strokeColor=#6c8ebf;" parent="Kb_KIcMxS6iBpeMSpJnd-7" vertex="1">
          <mxGeometry x="2184" y="1361" width="320" height="320" as="geometry" />
        </mxCell>
        <mxCell id="47l2vDxDsdCU6jmRX7GS-18" value="Carriage&lt;br&gt;8ft x 8ft&lt;br&gt;&lt;br&gt;7ft footprint" style="rounded=1;whiteSpace=wrap;html=1;fontSize=21;gradientColor=#7ea6e0;gradientDirection=west;rotation=0;textDirection=ltr;fillColor=#dae8fc;strokeColor=#6c8ebf;" parent="Kb_KIcMxS6iBpeMSpJnd-7" vertex="1">
          <mxGeometry x="2184" y="1070" width="320" height="280" as="geometry" />
        </mxCell>
        <mxCell id="47l2vDxDsdCU6jmRX7GS-19" value="A frame&lt;br&gt;8ft x 6ft&lt;br&gt;" style="rounded=1;whiteSpace=wrap;html=1;fontSize=21;gradientColor=#7ea6e0;gradientDirection=west;rotation=-90;textDirection=ltr;fillColor=#dae8fc;strokeColor=#6c8ebf;" parent="Kb_KIcMxS6iBpeMSpJnd-7" vertex="1">
          <mxGeometry x="1027" y="1090" width="320" height="240" as="geometry" />
        </mxCell>
        <mxCell id="47l2vDxDsdCU6jmRX7GS-31" value="9 inches" style="endArrow=none;dashed=1;html=1;rounded=0;fontSize=16;strokeWidth=6;strokeColor=#FF3333;fontColor=#000000;" parent="Kb_KIcMxS6iBpeMSpJnd-7" edge="1">
          <mxGeometry width="50" height="50" relative="1" as="geometry">
            <mxPoint x="1197" y="1038" as="sourcePoint" />
            <mxPoint x="1197" y="1008.0000000000002" as="targetPoint" />
          </mxGeometry>
        </mxCell>
        <object label="Expansion area" id="Kb_KIcMxS6iBpeMSpJnd-12">
          <mxCell parent="0" visible="0" />
        </object>
        <mxCell id="Kb_KIcMxS6iBpeMSpJnd-11" value="" style="rounded=1;whiteSpace=wrap;html=1;fontColor=#000000;fontSize=21;labelPosition=right;verticalLabelPosition=top;align=left;verticalAlign=bottom;spacingRight=15;" parent="Kb_KIcMxS6iBpeMSpJnd-12" vertex="1">
          <mxGeometry x="1430" y="1050" width="670" height="470" as="geometry" />
        </mxCell>
        <mxCell id="Kb_KIcMxS6iBpeMSpJnd-13" value="&lt;div&gt;Hot Tub&lt;/div&gt;&lt;div&gt;large 7+ people&lt;/div&gt;&lt;div&gt;7 x 8 ft&lt;br&gt;&lt;/div&gt;" style="rounded=1;whiteSpace=wrap;html=1;fontSize=21;fontColor=#000000;" parent="Kb_KIcMxS6iBpeMSpJnd-12" vertex="1">
          <mxGeometry x="1540" y="1220" width="320" height="280" as="geometry" />
        </mxCell>
        <mxCell id="Kb_KIcMxS6iBpeMSpJnd-15" value="&lt;div&gt;Open&amp;nbsp; Space&lt;/div&gt;&lt;div&gt;16 x 11 ft&lt;br&gt;&lt;/div&gt;" style="text;html=1;strokeColor=none;fillColor=none;align=center;verticalAlign=middle;whiteSpace=wrap;rounded=0;fontSize=21;fontColor=#000000;" parent="Kb_KIcMxS6iBpeMSpJnd-12" vertex="1">
          <mxGeometry x="1910" y="1100" width="110" height="60" as="geometry" />
        </mxCell>
      </root>
    </mxGraphModel>
  </diagram>
  <diagram id="k0sqb4WRPH1-ZAm63MsO" name="ShedExterior">
    <mxGraphModel dx="1103" dy="564" grid="1" gridSize="10" guides="1" tooltips="1" connect="1" arrows="1" fold="1" page="1" pageScale="1" pageWidth="850" pageHeight="1100" math="0" shadow="0">
      <root>
        <mxCell id="Ht648lXnjJ2hXoJVCMQE-0" />
        <mxCell id="Ht648lXnjJ2hXoJVCMQE-1" parent="Ht648lXnjJ2hXoJVCMQE-0" />
        <mxCell id="Ht648lXnjJ2hXoJVCMQE-6" value="" style="rounded=0;whiteSpace=wrap;html=1;" vertex="1" parent="Ht648lXnjJ2hXoJVCMQE-1">
          <mxGeometry x="80" y="280" width="640" height="500" as="geometry" />
        </mxCell>
        <UserObject label="&lt;div&gt;Scale1 box = 6 in&lt;/div&gt;" placeholders="1" name="Variable" id="Ht648lXnjJ2hXoJVCMQE-7">
          <mxCell style="text;html=1;strokeColor=none;fillColor=none;align=center;verticalAlign=middle;whiteSpace=wrap;overflow=hidden;" vertex="1" parent="Ht648lXnjJ2hXoJVCMQE-1">
            <mxGeometry x="30" y="210" width="120" height="30" as="geometry" />
          </mxCell>
        </UserObject>
        <UserObject label="8ft wide (16 box)" placeholders="1" name="Variable" id="Ht648lXnjJ2hXoJVCMQE-8">
          <mxCell style="text;html=1;strokeColor=none;fillColor=none;align=center;verticalAlign=middle;whiteSpace=wrap;overflow=hidden;" vertex="1" parent="Ht648lXnjJ2hXoJVCMQE-1">
            <mxGeometry x="330" y="250" width="120" height="30" as="geometry" />
          </mxCell>
        </UserObject>
        <UserObject label="&lt;div&gt;6&#39; 4.5&quot;t tall (~12.5box)&lt;/div&gt;" placeholders="1" name="Variable" id="Ht648lXnjJ2hXoJVCMQE-9">
          <mxCell style="text;html=1;strokeColor=none;fillColor=none;align=center;verticalAlign=middle;whiteSpace=wrap;overflow=hidden;rotation=-90;" vertex="1" parent="Ht648lXnjJ2hXoJVCMQE-1">
            <mxGeometry x="-50" y="470" width="220" height="30" as="geometry" />
          </mxCell>
        </UserObject>
        <mxCell id="Ht648lXnjJ2hXoJVCMQE-19" value="" style="group" vertex="1" connectable="0" parent="Ht648lXnjJ2hXoJVCMQE-1">
          <mxGeometry x="638" y="299" width="244.5" height="480" as="geometry" />
        </mxCell>
        <mxCell id="Ht648lXnjJ2hXoJVCMQE-14" value="" style="rounded=1;whiteSpace=wrap;html=1;rotation=90;" vertex="1" parent="Ht648lXnjJ2hXoJVCMQE-19">
          <mxGeometry x="-117.75" y="117.75" width="480" height="244.5" as="geometry" />
        </mxCell>
        <UserObject label="36&quot; wide (6 box)" placeholders="1" name="Variable" id="Ht648lXnjJ2hXoJVCMQE-15">
          <mxCell style="text;html=1;strokeColor=none;fillColor=none;align=center;verticalAlign=middle;whiteSpace=wrap;overflow=hidden;" vertex="1" parent="Ht648lXnjJ2hXoJVCMQE-19">
            <mxGeometry x="5" y="26" width="120" height="30" as="geometry" />
          </mxCell>
        </UserObject>
        <mxCell id="Ht648lXnjJ2hXoJVCMQE-20" value="" style="group" vertex="1" connectable="0" parent="Ht648lXnjJ2hXoJVCMQE-1">
          <mxGeometry x="400" y="299" width="201" height="480" as="geometry" />
        </mxCell>
        <mxCell id="Ht648lXnjJ2hXoJVCMQE-12" value="" style="rounded=1;whiteSpace=wrap;html=1;rotation=90;" vertex="1" parent="Ht648lXnjJ2hXoJVCMQE-20">
          <mxGeometry x="-139.5" y="139.5" width="480" height="201" as="geometry" />
        </mxCell>
        <UserObject label="30&quot; wide (5 box)" placeholders="1" name="Variable" id="Ht648lXnjJ2hXoJVCMQE-13">
          <mxCell style="text;html=1;strokeColor=none;fillColor=none;align=center;verticalAlign=middle;whiteSpace=wrap;overflow=hidden;" vertex="1" parent="Ht648lXnjJ2hXoJVCMQE-20">
            <mxGeometry x="5" y="21" width="120" height="30" as="geometry" />
          </mxCell>
        </UserObject>
        <mxCell id="Ht648lXnjJ2hXoJVCMQE-21" value="" style="group" vertex="1" connectable="0" parent="Ht648lXnjJ2hXoJVCMQE-1">
          <mxGeometry x="165" y="299" width="180" height="480" as="geometry" />
        </mxCell>
        <mxCell id="Ht648lXnjJ2hXoJVCMQE-10" value="" style="rounded=1;whiteSpace=wrap;html=1;rotation=90;" vertex="1" parent="Ht648lXnjJ2hXoJVCMQE-21">
          <mxGeometry x="-150" y="150" width="480" height="180" as="geometry" />
        </mxCell>
        <UserObject label="27&quot; wide (~4.5 box)" placeholders="1" name="Variable" id="Ht648lXnjJ2hXoJVCMQE-11">
          <mxCell style="text;html=1;strokeColor=none;fillColor=none;align=center;verticalAlign=middle;whiteSpace=wrap;overflow=hidden;" vertex="1" parent="Ht648lXnjJ2hXoJVCMQE-21">
            <mxGeometry x="5" y="11" width="120" height="30" as="geometry" />
          </mxCell>
        </UserObject>
        <object label="Front Doors" id="Ht648lXnjJ2hXoJVCMQE-18">
          <mxCell parent="Ht648lXnjJ2hXoJVCMQE-0" />
        </object>
      </root>
    </mxGraphModel>
  </diagram>
</mxfile>
